<svg width="840" height="220" viewBox="0 0 840 220" fill="none" xmlns="http://www.w3.org/2000/svg">
  <defs>
    <linearGradient id="word_bg" x1="18" y1="18" x2="202" y2="202" gradientUnits="userSpaceOnUse">
      <stop stop-color="#1BE0B0"/>
      <stop offset="1" stop-color="#13A8D9"/>
    </linearGradient>
    <linearGradient id="word_core" x1="110" y1="44" x2="110" y2="168" gradientUnits="userSpaceOnUse">
      <stop stop-color="#031D29"/>
      <stop offset="1" stop-color="#0B2F3F"/>
    </linearGradient>
  </defs>

  <rect x="18" y="18" width="184" height="184" rx="46" fill="url(#word_bg)"/>
  <path d="M74 168V84C74 79.582 77.582 76 82 76C86.418 76 90 79.582 90 84V168H74Z" fill="url(#word_core)"/>
  <path d="M102 168V68C102 63.582 105.582 60 110 60C114.418 60 118 63.582 118 68V168H102Z" fill="url(#word_core)"/>
  <path d="M130 168V95C130 90.582 133.582 87 138 87C142.418 87 146 90.582 146 95V168H130Z" fill="url(#word_core)"/>
  <path d="M74 168H146" stroke="#E8FAFF" stroke-opacity="0.72" stroke-width="6" stroke-linecap="round"/>
  <circle cx="110" cy="52" r="7" fill="#FFF4D8"/>

  <path d="M258 153V63H278V153H258Z" fill="#EAF3FF"/>
  <path d="M314 153V84.8H334V153H314ZM314 74.5V55H334V74.5H314Z" fill="#EAF3FF"/>
  <path d="M370 153V84.8H388.6L390.4 95.4C395.467 87.2667 403.067 83.2 413.2 83.2C421.333 83.2 427.867 85.8 432.8 91C437.733 96.2 440.2 103.733 440.2 113.6V153H420.2V116.4C420.2 105.067 415.2 99.4 405.2 99.4C400 99.4 395.733 101.067 392.4 104.4C389.2 107.733 387.6 112.467 387.6 118.6V153H370Z" fill="#EAF3FF"/>
  <path d="M503.2 154.8C493.333 154.8 485.333 151.6 479.2 145.2C473.2 138.667 470.2 130.333 470.2 120.2C470.2 110.067 473.2 101.8 479.2 95.4C485.2 88.8667 493.067 85.6 502.8 85.6C512.667 85.6 520.533 88.8667 526.4 95.4C532.4 101.8 535.4 110.067 535.4 120.2C535.4 130.333 532.4 138.667 526.4 145.2C520.533 151.6 512.8 154.8 503.2 154.8ZM503 138.2C508.467 138.2 512.8 136.533 516 133.2C519.333 129.867 521 125.533 521 120.2C521 114.867 519.333 110.6 516 107.4C512.8 104.067 508.467 102.4 503 102.4C497.533 102.4 493.133 104.067 489.8 107.4C486.6 110.6 485 114.867 485 120.2C485 125.533 486.6 129.867 489.8 133.2C493.133 136.533 497.533 138.2 503 138.2Z" fill="#EAF3FF"/>
  <path d="M569.2 153V84.8H587.2L588.8 95.8C593.2 88.3333 600.4 84.6 610.4 84.6H614.8V102.4H608.8C602.4 102.4 597.467 103.933 594 107C590.667 110.067 589 115.333 589 122.8V153H569.2Z" fill="#EAF3FF"/>
  <path d="M665.6 154.8C658 154.8 651.733 152.8 646.8 148.8C641.867 144.8 639.4 139.267 639.4 132.2C639.4 124.6 642.267 118.8 648 114.8C653.733 110.667 662 108.6 672.8 108.6H688.2V107.8C688.2 102.733 686.667 98.9333 683.6 96.4C680.667 93.8667 676.867 92.6 672.2 92.6C668.2 92.6 664.733 93.6 661.8 95.6C658.867 97.6 657 100.4 656.2 104H641.4C642.067 98.2667 644.067 93.2 647.4 88.8C650.733 84.4 655 80.9333 660.2 78.4C665.533 75.8667 671.4 74.6 677.8 74.6C689.267 74.6 698 77.5333 704 83.4C710.133 89.2667 713.2 97.3333 713.2 107.6V153H695.8L694 143.8C691.733 146.867 688.733 149.333 685 151.2C681.4 153.6 674.933 154.8 665.6 154.8ZM669.2 142.8C674.533 142.8 678.867 141.067 682.2 137.6C685.533 134.133 687.667 129.8 688.6 124.6H675.2C670.267 124.6 666.8 125.4 664.8 127C662.8 128.6 661.8 130.667 661.8 133.2C661.8 136 662.8 138.2 664.8 139.8C666.8 141.8 668.267 142.8 669.2 142.8Z" fill="#EAF3FF"/>
  <path d="M746.6 153V84.8H764.6L766.2 95.8C770.6 88.3333 777.8 84.6 787.8 84.6H792.2V102.4H786.2C779.8 102.4 774.867 103.933 771.4 107C768.067 110.067 766.4 115.333 766.4 122.8V153H746.6Z" fill="#EAF3FF"/>
</svg>
